<svg width="1751" height="548" viewBox="0 0 1751 548" fill="none" xmlns="http://www.w3.org/2000/svg">
<path d="M597.188 7.42993C648.906 5.52502 698.566 22.0313 736.809 61.3567C769.315 94.8778 788.342 141.234 789.712 190.198C791.147 240.559 777.046 285.577 745.349 322.518C712.033 360.74 666.428 383.111 618.294 384.842C618.063 384.884 617.83 384.926 617.599 384.968C568.643 387.91 521.392 373.512 483.596 339.276C449.243 308.197 427.54 263.384 423.268 214.708C419.112 166.996 434.607 116.108 462.327 79.4387C495.365 35.7339 542.784 12.9715 593.473 7.65258C594.71 7.55184 595.948 7.47776 597.188 7.42993ZM711.782 191.275C709.138 127.543 660.08 78.1725 602.085 80.8782C543.83 83.5972 498.667 137.808 501.323 201.825C503.98 265.841 553.447 315.309 611.684 312.187C669.662 309.08 714.427 255.007 711.782 191.275Z" fill="#FAF9FA"/>
<path d="M932.662 178.045C964.464 177.615 998.761 177.478 1030.62 177.953C1072.18 179.478 1112.16 172.795 1152.58 187.191C1212.48 208.528 1241.97 280.226 1222.61 346.695C1212.1 382.781 1190.11 403.759 1160.67 420.085C1183.28 459.352 1210.59 502.088 1231.72 541.708L1202.62 541.824L1145.81 541.755C1125.34 505.546 1104.49 469.615 1083.24 433.974L1008.24 434.003C1007.25 467.689 1008.14 507.637 1008.14 541.808L932.719 541.892L932.662 178.045ZM1153.32 306.214C1152.25 249.005 1095.51 253.015 1059.51 253.334C1042.27 253.488 1025.24 253.584 1008.38 253.421C1007.47 288.2 1007.9 327.645 1008.2 362.64L1058.66 362.74C1084.47 362.768 1117.38 366.136 1138.05 346.285C1148.19 334.543 1153.64 322.746 1153.32 306.214Z" fill="#FAF9FA"/>
<path d="M1603.67 178.005L1691.62 401.212L1728.23 492.393C1734.44 507.908 1742.17 526.041 1747.62 541.741C1721.91 542.35 1694.14 541.814 1668.28 541.807L1644.93 478.296L1602.8 478.286L1484.84 478.336C1477.08 499.217 1469.24 521.146 1461.01 541.702C1435.79 542.172 1409.79 541.808 1384.5 541.809C1401.83 501.18 1419.17 455.549 1435.62 414.162L1529.04 177.961L1603.67 178.005ZM1564.89 274.368C1545.95 319.73 1527.89 365.585 1510.73 411.899L1566.49 411.892L1619.5 411.77C1614.51 397.614 1568.46 277.899 1564.89 274.368Z" fill="#FAF9FA"/>
<path d="M126.539 11.4884C127.517 11.2981 128.437 11.1546 129.433 11.1098C181.919 8.2616 233.216 29.292 271.779 69.4651C260.219 89.3191 248.536 109.083 236.733 128.755C217.344 112.882 200.876 101.306 177.222 93.6968C152.604 85.778 118.329 82.0923 94.6721 95.5468C84.8333 101.142 81.1996 109.351 78.4067 120.538C79.9247 128.914 80.7186 135.452 87.2437 141.174C99.6964 152.094 117.97 153.761 133.003 157.373C175.381 167.798 230.859 173.221 263.7 207.965C296.687 242.863 292.458 313.52 260.288 347.553C228.288 381.407 183.173 389.356 140.966 388.954C88.9607 388.087 40.4583 372.519 0 335.03C10.8777 315.059 22.6323 294.84 33.8418 275.042C71.3246 306.016 110.191 321.484 157.386 319.384C172.95 318.692 193.466 314.474 204.316 300.663C209.185 294.511 211.693 286.44 211.293 278.214C207.519 209.185 9.49704 267.572 2.10211 132.336C0.487327 105.294 8.61098 78.659 24.6422 58.4335C49.9598 26.282 89.7229 14.073 126.539 11.4884Z" fill="#FAF9FA"/>
<path d="M918.745 0C1001.47 1.11281 1086.8 0.0528276 1169.75 0.0665659L1750.09 0.134212L1750.16 49.5343C1750.03 53.0302 1750.61 53.2246 1748.89 55.5739C1742.01 56.5292 1728.89 56.041 1721.31 56.0167L1672.8 55.9628L1504.35 55.9807L918.798 55.9512L918.745 0Z" fill="#00A07D"/>
<path d="M0.593034 493.756L807.1 493.762C807.151 503.693 807.905 539.013 806.652 546.12C804.145 547.886 800.028 547.44 796.818 547.443L0.757108 547.274C0.37905 529.803 0.637871 511.31 0.593034 493.756Z" fill="#00A07D"/>
</svg>
