            <svg id="f0" class="plan-svg" xmlns="http://www.w3.org/2000/svg" viewBox="-1 -1 502 322">

              <!-- BACKGROUND : non-interactive zones (Escalier + Douche + Jacuzzi) -->
              <g id="f0-shell" pointer-events="none">
                <polygon points="141.8,0 0,0 0,157.8 55.8,157.8 55.8,54.6 141.8,54.6"
                         fill="rgba(225,222,215,0.5)" stroke="rgba(61,57,52,0.95)" stroke-width="1"/>
                <g stroke="rgba(61,57,52,0.32)" stroke-width="0.5" fill="none">
                  <line x1="0" y1="75.2" x2="55.8" y2="75.2"/>
                  <line x1="0" y1="95.9" x2="55.8" y2="95.9"/>
                  <line x1="0" y1="116.5" x2="55.8" y2="116.5"/>
                  <line x1="0" y1="137.2" x2="55.8" y2="137.2"/>
                  <line x1="77.3" y1="0" x2="77.3" y2="54.6"/>
                  <line x1="98.8" y1="0" x2="98.8" y2="54.6"/>
                  <line x1="120.3" y1="0" x2="120.3" y2="54.6"/>
                </g>
                <g transform="translate(15, 17)" pointer-events="none">
                  <path d="M 0 18 L 0 12 L 6 12 L 6 6 L 12 6 L 12 0 L 18 0"
                        stroke="rgba(120,115,108,0.65)" stroke-width="1.6" fill="none" stroke-linecap="round" stroke-linejoin="round"/>
                </g>
              </g>

              <!-- TERRASSE (cliquable) -->
              <g class="pzone terrace" data-room='terrace'>
                <rect class="pz-fill" x="348.5" y="0" width="151.5" height="320"/>
              </g>

              <!-- TERRASSE DECORATIONS -->
              <g pointer-events="none">
                <g stroke="rgba(61,57,52,0.32)" stroke-width="0.5" fill="none">
                  <line x1="348.5" y1="20" x2="500" y2="20"/>
                  <line x1="348.5" y1="40" x2="500" y2="40"/>
                  <line x1="348.5" y1="60" x2="500" y2="60"/>
                  <line x1="348.5" y1="80" x2="500" y2="80"/>
                  <line x1="348.5" y1="100" x2="500" y2="100"/>
                  <line x1="348.5" y1="220" x2="500" y2="220"/>
                  <line x1="348.5" y1="240" x2="500" y2="240"/>
                  <line x1="348.5" y1="260" x2="500" y2="260"/>
                  <line x1="348.5" y1="280" x2="500" y2="280"/>
                  <line x1="348.5" y1="300" x2="500" y2="300"/>
                </g>
                <text x="424" y="270" text-anchor="middle"
                      font-family="'the-seasons', Georgia, serif" font-size="14"
                      font-weight="500" letter-spacing="0.04em"
                      fill="rgba(52,48,44,0.85)">Terrasse</text>
                <rect x="396.7" y="30.4" width="93.9" height="65.5"
                      fill="rgba(244,240,233,0.55)" stroke="rgba(61,57,52,0.85)" stroke-width="0.8"/>
                <text x="443.7" y="60" text-anchor="middle"
                      font-family="'the-seasons', Georgia, serif" font-size="9"
                      letter-spacing="0.04em"
                      fill="rgba(52,48,44,0.8)">Douche</text>
                <text x="443.7" y="74" text-anchor="middle"
                      font-family="'the-seasons', Georgia, serif" font-size="9"
                      letter-spacing="0.04em"
                      fill="rgba(52,48,44,0.8)">extérieure</text>
                <circle cx="450.2" cy="146" r="40.3"
                        fill="rgba(178,210,225,0.65)" stroke="rgba(95,135,160,0.85)" stroke-width="1"/>
                <path d="M 425 132 Q 430 129 435 132 Q 440 135 445 132 Q 450 129 455 132 Q 460 135 465 132 Q 470 129 475 132"
                      fill="none" stroke="rgba(95,135,160,0.6)" stroke-width="0.8"/>
                <path d="M 425 142 Q 430 139 435 142 Q 440 145 445 142 Q 450 139 455 142 Q 460 145 465 142 Q 470 139 475 142"
                      fill="none" stroke="rgba(95,135,160,0.6)" stroke-width="0.8"/>
                <text x="450.2" y="168" text-anchor="middle"
                      font-family="'the-seasons', Georgia, serif" font-size="11"
                      letter-spacing="0.04em"
                      fill="rgba(50,80,100,0.9)">Jacuzzi</text>
              </g>

              <!-- LIVING -->
              <g class="pzone living" data-room='living'>
                <polygon class="pz-fill" points="141.8,0 348.5,0 348.5,320 183,320 183,157.8 55.8,157.8 55.8,54.6 141.8,54.6"/>
                <text class="pz-text" x="245" y="105" text-anchor="middle">Living</text>
              </g>

              <!-- CUISINE -->
              <g class="pzone kitchen" data-room='kitchen'>
                <polygon class="pz-fill" points="0,157.8 183,157.8 183,320 0,320"/>
                <text class="pz-text" x="91" y="245" text-anchor="middle">Cuisine</text>
              </g>

            </svg>
