            <svg id="f1" class="plan-svg" xmlns="http://www.w3.org/2000/svg" viewBox="0 0 500 331">

              <!-- TERRASSE grisée (vue depuis l'étage) -->
              <g pointer-events="none">
                <rect x="0" y="0" width="171" height="290" fill="rgba(225,222,215,0.5)"/>
                <g stroke="rgba(61,57,52,0.18)" stroke-width="0.6" stroke-dasharray="3 2" fill="none">
                  <line x1="0" y1="0" x2="171" y2="290"/>
                  <line x1="171" y1="0" x2="0" y2="290"/>
                </g>
                <rect x="171" y="0" width="329" height="29" fill="rgba(225,222,215,0.5)"/>
                <rect x="0" y="290" width="387" height="41" fill="rgba(225,222,215,0.5)"/>
                <g stroke="rgba(61,57,52,0.18)" stroke-width="0.6" stroke-dasharray="3 2" fill="none">
                  <line x1="0" y1="290" x2="387" y2="331"/>
                  <line x1="387" y1="290" x2="0" y2="331"/>
                </g>
                <text x="86" y="140" text-anchor="middle"
                      font-family="'the-seasons', Georgia, serif" font-size="14"
                      font-weight="500" letter-spacing="0.04em"
                      fill="rgba(94,89,82,0.55)">Terrasse</text>
                <text x="86" y="156" text-anchor="middle"
                      font-family="Inter, sans-serif" font-size="8"
                      letter-spacing="0.06em" fill="rgba(94,89,82,0.45)">accès rez-de-chaussée</text>
                <text x="200" y="316" text-anchor="middle"
                      font-family="'the-seasons', Georgia, serif" font-size="13"
                      letter-spacing="0.04em"
                      fill="rgba(110,135,100,0.55)">Garden</text>
              </g>

              <!-- TOIT GARAGE grisé hachuré (au-dessus du garage du RDC) -->
              <g pointer-events="none">
                <rect x="420" y="210" width="80" height="121" fill="rgba(225,222,215,0.5)"/>
                <g stroke="rgba(61,57,52,0.18)" stroke-width="0.6" stroke-dasharray="3 2" fill="none">
                  <line x1="420" y1="210" x2="500" y2="331"/>
                  <line x1="500" y1="210" x2="420" y2="331"/>
                </g>
                <rect x="387" y="290" width="33" height="41" fill="rgba(225,222,215,0.5)"/>
              </g>

              <!-- BALCON GAUCHE (devant Chambre 3) -->
              <g pointer-events="none">
                <rect x="130" y="168" width="41" height="122"
                      fill="rgba(225,222,215,0.7)" stroke="none"/>
                <text x="150.5" y="232" text-anchor="middle"
                      font-family="'the-seasons', Georgia, serif" font-size="10"
                      letter-spacing="0.04em" fill="rgba(94,89,82,0.7)">Balcon</text>
              </g>

              <!-- BALCON DROIT (devant Chambre 2) -->
              <g pointer-events="none">
                <rect x="387" y="210" width="33" height="80"
                      fill="rgba(225,222,215,0.7)" stroke="none"/>
                <text x="403.5" y="255" text-anchor="middle"
                      font-family="'the-seasons', Georgia, serif" font-size="9"
                      letter-spacing="0.04em" fill="rgba(94,89,82,0.7)">Balcon</text>
              </g>

              <!-- MAISON background (cream uniforme sous toutes les chambres + SDB, comme f0) -->
              <g pointer-events="none">
                <rect x="171" y="29" width="329" height="181" fill="rgba(245,242,234,0.95)"/>
                <rect x="171" y="210" width="216" height="80" fill="rgba(245,242,234,0.95)"/>
              </g>

              <!-- ESCALIER + landing -->
              <g pointer-events="none">
                <rect x="171" y="29" width="214" height="92"
                      fill="rgba(245,242,234,0.95)" stroke="none"/>
                <rect x="210" y="29" width="146" height="39"
                      fill="rgba(225,222,215,0.5)" stroke="none"/>
                <g transform="translate(274, 39)">
                  <path d="M 0 18 L 0 12 L 6 12 L 6 6 L 12 6 L 12 0 L 18 0"
                        stroke="rgba(120,115,108,0.65)" stroke-width="1.6" fill="none" stroke-linecap="round" stroke-linejoin="round"/>
                </g>
              </g>

              <!-- ZONES CLIQUABLES -->
              <!-- WALLS (rendus AVANT les pzones pour que le hover-gold soit visible par-dessus) -->
              <g pointer-events="none" fill="none"
                 stroke="rgba(61,57,52,0.95)" stroke-width="1" stroke-linecap="square">
                <!-- Périmètre extérieur global -->
                <path d="M 0 0 L 500 0 L 500 331 L 0 331 Z"/>
                <path d="M 171 29 L 500 29 L 500 210 L 387 210 L 387 290 L 171 290 Z"/>
                <path d="M 387 210 L 500 210 L 500 331 L 387 331 L 387 290 L 420 290"/>
                <path d="M 420 210 L 420 290"/>
                <path d="M 130 168 L 171 168 L 171 290 L 130 290 Z"/>
                <path d="M 210 29 L 210 68 L 356 68 L 356 29"/>
                <path d="M 387 29 L 387 210"/>
                <path d="M 387 89 L 500 89"/>
                <path d="M 171 121 L 387 121"/>
                <path d="M 227 121 L 227 199"/>
                <path d="M 278 121 L 278 199"/>
                <path d="M 328 121 L 328 199"/>
                <path d="M 227 199 L 328 199"/>
                <path d="M 278 199 L 278 290"/>
              </g>

              <g class="pzone bath1" data-room='bath1'>
                <rect class="pz-fill" x="387" y="29" width="113" height="60" style="stroke:none"/>
                <text class="pz-text" x="443" y="55" text-anchor="middle" style="font-size:11px">Salle de</text>
                <text class="pz-text" x="443" y="70" text-anchor="middle" style="font-size:11px">bain 1</text>
              </g>

              <g class="pzone bedroom1" data-room='bedroom1'>
                <rect class="pz-fill" x="387" y="89" width="113" height="121" style="stroke:none"/>
                <text class="pz-text" x="443" y="155" text-anchor="middle">Chambre 1</text>
              </g>

              <g class="pzone bedroom3" data-room='bedroom3'>
                <polygon class="pz-fill" points="171,121 227,121 227,199 278,199 278,290 171,290" style="stroke:none"/>
                <text class="pz-text" x="225" y="250" text-anchor="middle">Chambre 3</text>
              </g>

              <g class="pzone bedroom2" data-room='bedroom2'>
                <polygon class="pz-fill" points="328,121 387,121 387,290 278,290 278,199 328,199" style="stroke:none"/>
                <text class="pz-text" x="333" y="250" text-anchor="middle">Chambre 2</text>
              </g>

              <g class="pzone bath3" data-room='bath3'>
                <rect class="pz-fill" x="227" y="121" width="51" height="78" style="stroke:none"/>
                <text class="pz-text" x="252" y="155" text-anchor="middle" style="font-size:10px">SDB 3</text>
              </g>

              <g class="pzone bath2" data-room='bath2'>
                <rect class="pz-fill" x="278" y="121" width="50" height="78" style="stroke:none"/>
                <text class="pz-text" x="303" y="155" text-anchor="middle" style="font-size:10px">SDB 2</text>
              </g>
            </svg>
