            <svg id="f0" class="plan-svg" xmlns="http://www.w3.org/2000/svg" viewBox="-1 -1 502 383">

              <!-- TOILETTES (cliquable) -->
              <g class="pzone toilet" data-room='toilet'>
                <rect class="pz-fill" x="0" y="0" width="77" height="54" style="stroke:none"/>
                <text class="pz-text" x="38.5" y="32" text-anchor="middle" style="font-size:11px">Toilettes</text>
              </g>

              <g id="f0-shell" pointer-events="none">
                <rect x="77" y="0" width="202" height="54"
                      fill="rgba(225,222,215,0.5)" stroke="none"/>
                <g stroke="rgba(61,57,52,0.32)" stroke-width="0.5" fill="none">
                  <line x1="100" y1="0" x2="100" y2="54"/>
                  <line x1="123" y1="0" x2="123" y2="54"/>
                  <line x1="146" y1="0" x2="146" y2="54"/>
                  <line x1="169" y1="0" x2="169" y2="54"/>
                  <line x1="192" y1="0" x2="192" y2="54"/>
                  <line x1="215" y1="0" x2="215" y2="54"/>
                  <line x1="238" y1="0" x2="238" y2="54"/>
                  <line x1="261" y1="0" x2="261" y2="54"/>
                </g>
                <g transform="translate(169, 18)" pointer-events="none">
                  <path d="M 0 18 L 0 12 L 6 12 L 6 6 L 12 6 L 12 0 L 18 0"
                        stroke="rgba(120,115,108,0.65)" stroke-width="1.6" fill="none" stroke-linecap="round" stroke-linejoin="round"/>
                </g>
              </g>

              <!-- WALLS (rendered BEFORE pzones so hover-gold polygon strokes render on top) -->
              <g pointer-events="none" fill="none"
                 stroke="rgba(61,57,52,0.95)" stroke-width="1.5" stroke-linecap="square">
                <path d="M 0 0 L 500 0 L 500 210 L 0 210 Z"/>
                <path d="M 77 0 L 77 54"/>
                <path d="M 0 54 L 279 54"/>
                <path d="M 279 0 L 279 54"/>
                <path d="M 0 210 L 0 381 L 500 381 L 500 210"/>
                <path d="M 0 252 L 209 252 L 209 381"/>
                <path d="M 257 381 L 257 252 L 394 252 L 394 381"/>
                <path d="M 394 252 L 500 252"/>
              </g>

              <g class="pzone terrace" data-room='terrace'>
                <rect class="pz-fill" x="0" y="210" width="500" height="171" style="stroke:none"/>
                <text class="pz-text" x="250" y="232" text-anchor="middle">Terrasse</text>
              </g>

              <g pointer-events="none" fill="none">
                <g stroke="rgba(61,57,52,0.25)" stroke-width="0.5">
                  <line x1="0" y1="222" x2="500" y2="222"/>
                  <line x1="0" y1="240" x2="500" y2="240"/>
                </g>
              </g>

              <g pointer-events="none">
                <rect x="0" y="252" width="209" height="129"
                      fill="rgba(178,210,225,0.55)" stroke="none"/>
                <path d="M 20 275 Q 30 271 40 275 Q 50 279 60 275 Q 70 271 80 275 Q 90 279 100 275 Q 110 271 120 275 Q 130 279 140 275 Q 150 271 160 275 Q 170 279 180 275"
                      fill="none" stroke="rgba(95,135,160,0.6)" stroke-width="0.8"/>
                <path d="M 20 289 Q 30 285 40 289 Q 50 293 60 289 Q 70 285 80 289 Q 90 293 100 289 Q 110 285 120 289 Q 130 293 140 289 Q 150 285 160 289 Q 170 293 180 289"
                      fill="none" stroke="rgba(95,135,160,0.6)" stroke-width="0.8"/>
                <text x="104.5" y="320" text-anchor="middle"
                      font-family="'the-seasons', Georgia, serif" font-size="14"
                      letter-spacing="0.04em"
                      fill="rgba(50,80,100,0.9)">Piscine</text>
              </g>

              <g pointer-events="none">
                <rect x="257" y="252" width="137" height="129"
                      fill="rgba(190,205,180,0.5)" stroke="none"/>
                <text x="325.5" y="320" text-anchor="middle"
                      font-family="'the-seasons', Georgia, serif" font-size="14"
                      letter-spacing="0.04em"
                      fill="rgba(60,80,55,0.9)">Garden</text>
              </g>

              <g pointer-events="none">
                <rect x="394" y="252" width="106" height="129"
                      fill="rgba(225,222,215,0.65)" stroke="none"/>
                <text x="447" y="320" text-anchor="middle"
                      font-family="'the-seasons', Georgia, serif" font-size="14"
                      letter-spacing="0.04em"
                      fill="rgba(52,48,44,0.85)">Parking</text>
              </g>

              <g class="pzone kitchen" data-room='kitchen'>
                <polygon class="pz-fill" points="0,54 140,54 140,210 0,210" style="stroke:none"/>
                <text class="pz-text" x="70" y="135" text-anchor="middle">Cuisine</text>
              </g>

              <g class="pzone dining" data-room='dining'>
                <polygon class="pz-fill" points="140,54 279,54 279,210 140,210" style="stroke:none"/>
                <text class="pz-text" x="209.5" y="135" text-anchor="middle">Dining</text>
              </g>

              <g class="pzone living" data-room='living'>
                <polygon class="pz-fill" points="279,0 500,0 500,210 279,210" style="stroke:none"/>
                <text class="pz-text" x="389.5" y="120" text-anchor="middle">Living</text>
                <text class="pz-text" x="389.5" y="138" text-anchor="middle">Room</text>
              </g>

              <!-- Dashed separators (open-plan) -->
              <g pointer-events="none" fill="none"
                 stroke="rgba(61,57,52,0.55)" stroke-width="1.5" stroke-dasharray="4 3">
                <line x1="140" y1="54" x2="140" y2="210"/>
                <line x1="279" y1="54" x2="279" y2="210"/>
              </g>

            </svg>
